<svg height="384pt" viewBox="0 -8 384.14458 384" width="384pt" xmlns="http://www.w3.org/2000/svg"><path d="m357.742188 71.800781c1.472656-5.046875 2.257812-10.328125 2.257812-15.726562 0-14.960938-5.832031-29.027344-16.398438-39.59375-10.578124-10.578125-24.640624-16.4062502-39.601562-16.4062502-10.558594 0-20.640625 2.9570312-29.398438 8.3828122-16.226562-5.457031-33.167968-8.3828122-50.601562-8.3828122-3.257812 0-6.433594.9882812-9.113281 2.8398432l-208 144c-.328125.222657-.574219.511719-.878907.75-.488281.390626-.984374.769532-1.421874 1.214844-.386719.394532-.707032.832032-1.042969 1.265625-.304688.382813-.632813.742188-.902344 1.152344-.304687.464844-.527344.960937-.785156 1.4375-.222657.441406-.480469.859375-.664063 1.3125-.207031.519531-.335937 1.058594-.496094 1.59375-.136718.472656-.296874.910156-.390624 1.390625-.136719.714844-.175782 1.441406-.2148442 2.167969-.0195313.296875-.0898438.578125-.0898438.875v.167969.046874 191.785157c0 8.828125 7.167969 16 16 16h352c8.832031 0 16-7.171875 16-16v-192c0-.042969-.007812-.074219-.007812-.113281 1.414062-36.839844-7-65.160157-26.25-88.160157zm-325.742188 104.273438h320v64h-320zm288.96875-136.960938c4.527344 4.519531 7.03125 10.550781 7.03125 16.960938 0 6.40625-2.503906 12.4375-7.039062 16.964843-4.816407 4.824219-23.3125 7.410157-41.457032 7.519532.121094-18.140625 2.703125-36.636719 7.519532-41.453125 0-.007813 0-.007813.007812-.007813 4.527344-4.519531 10.5625-7.023437 16.96875-7.023437s12.441406 2.503906 16.96875 7.039062zm-92.105469-6.945312c8.375.304687 16.578125 1.511719 24.59375 3.417969-7.441406 22.09375-6.191406 51.175781-5.417969 61.671874.585938 7.902344 6.863282 14.183594 14.777344 14.773438 3.65625.273438 9.558594.601562 16.648438.601562 18.085937 0 43.734375-2.222656 59.152344-12.96875 8.015624 12.289063 12.269531 26.726563 13.246093 44.417969h-284.640625zm-196.863281 303.90625v-64h320v64zm0 0"/></svg>